<?xml version="1.0" standalone="no"?><!DOCTYPE svg PUBLIC "-//W3C//DTD SVG 1.1//EN" "http://www.w3.org/Graphics/SVG/1.1/DTD/svg11.dtd"><svg class="icon" width="32px" height="32.00px" viewBox="0 0 1024 1024" version="1.1" xmlns="http://www.w3.org/2000/svg"><path d="M152.953066 419.605683c-48.864918 0-88.457658 41.352827-88.457658 92.405573 0 51.030234 39.59274 92.38306 88.457658 92.38306 48.863894 0 88.479147-41.352827 88.479147-92.38306C241.432213 460.957487 201.81696 419.605683 152.953066 419.605683zM526.499737 419.605683c-48.864918 0-88.456634 41.352827-88.456634 92.405573 0 51.030234 39.591717 92.38306 88.456634 92.38306 48.863894 0 88.48017-41.352827 88.48017-92.38306C614.979908 460.957487 575.363631 419.605683 526.499737 419.605683zM900.046409 419.605683c-48.864918 0-88.456634 41.352827-88.456634 92.405573 0 51.030234 39.591717 92.38306 88.456634 92.38306 48.865941 0 88.48017-41.352827 88.48017-92.38306C988.526579 460.957487 948.912349 419.605683 900.046409 419.605683z" fill="#ffffff" /></svg>