<?xml version="1.0" encoding="UTF-8"?>
<svg width="24px" height="20px" viewBox="0 0 24 20" version="1.1" xmlns="http://www.w3.org/2000/svg" xmlns:xlink="http://www.w3.org/1999/xlink">
    <!-- Generator: Sketch 40 (33762) - http://www.bohemiancoding.com/sketch -->
    <title>shopping-cart copy 3</title>
    <desc>Created with Sketch.</desc>
    <defs>
        <circle id="path-1" cx="18" cy="4" r="4"></circle>
        <mask id="mask-2" maskContentUnits="userSpaceOnUse" maskUnits="objectBoundingBox" x="-2" y="-2" width="12" height="12">
            <rect x="12" y="-2" width="12" height="12" fill="white"></rect>
            <use xlink:href="#path-1" fill="black"></use>
        </mask>
    </defs>
    <g id="Page-1" stroke="none" stroke-width="1" fill="none" fill-rule="evenodd">
        <g id="壹号商城" transform="translate(-225.000000, -2799.000000)">
            <g id="Group-10-Copy-2" transform="translate(-1.000000, 2793.000000)">
                <g id="shopping-cart-copy-3" transform="translate(226.000000, 8.000000)">
                    <path d="M5.8,14.8 C4.92,14.8 4.2,15.52 4.2,16.4 C4.2,17.28 4.92,18 5.8,18 C6.68,18 7.4,17.28 7.4,16.4 C7.4,15.52 6.68,14.8 5.8,14.8 L5.8,14.8 Z M0,2 L0,3.6 L1.8,3.6 L5.04,9.68 L3.78,11.6 C3.69,11.84 3.6,12.16 3.6,12.4 C3.6,13.28 4.41,14 5.4,14 L16.2,14 L16.2,12.4 L5.76,12.4 C5.67,12.4 5.58,12.32 5.58,12.24 L5.58,12.16 L6.39,10.8 L13.05,10.8 C13.77,10.8 14.31,10.48 14.58,10 L17.82,4.8 C18,4.64 18,4.56 18,4.4 C18,3.92 17.64,3.6 17.1,3.6 L3.78,3.6 L2.97,2 L0,2 L0,2 Z M13.8,14.8 C12.92,14.8 12.2,15.52 12.2,16.4 C12.2,17.28 12.92,18 13.8,18 C14.68,18 15.4,17.28 15.4,16.4 C15.4,15.52 14.68,14.8 13.8,14.8 L13.8,14.8 Z" id="Shape" fill="#909090"></path>
                    <g id="Oval-2">
                        <use fill="#FF6E00" fill-rule="evenodd" xlink:href="#path-1"></use>
                        <use stroke="#FFFFFF" mask="url(#mask-2)" stroke-width="4" xlink:href="#path-1"></use>
                    </g>
                </g>
            </g>
        </g>
    </g>
</svg>