<?xml version="1.0" encoding="UTF-8"?>
<svg width="18px" height="16px" viewBox="0 0 18 16" version="1.1" xmlns="http://www.w3.org/2000/svg" xmlns:xlink="http://www.w3.org/1999/xlink">
    <!-- Generator: Sketch 40 (33762) - http://www.bohemiancoding.com/sketch -->
    <title>tabbar_icon_gouwu_pre</title>
    <desc>Created with Sketch.</desc>
    <defs></defs>
    <g id="Page-1" stroke="none" stroke-width="1" fill="none" fill-rule="evenodd">
        <g id="壹号商城" transform="translate(-225.000000, -2674.000000)" fill="#FF7A00">
            <path d="M230.8,2686.8 C229.92,2686.8 229.2,2687.52 229.2,2688.4 C229.2,2689.28 229.92,2690 230.8,2690 C231.68,2690 232.4,2689.28 232.4,2688.4 C232.4,2687.52 231.68,2686.8 230.8,2686.8 L230.8,2686.8 Z M225,2674 L225,2675.6 L226.8,2675.6 L230.04,2681.68 L228.78,2683.6 C228.69,2683.84 228.6,2684.16 228.6,2684.4 C228.6,2685.28 229.41,2686 230.4,2686 L241.2,2686 L241.2,2684.4 L230.76,2684.4 C230.67,2684.4 230.58,2684.32 230.58,2684.24 L230.58,2684.16 L231.39,2682.8 L238.05,2682.8 C238.77,2682.8 239.31,2682.48 239.58,2682 L242.82,2676.8 C243,2676.64 243,2676.56 243,2676.4 C243,2675.92 242.64,2675.6 242.1,2675.6 L228.78,2675.6 L227.97,2674 L225,2674 L225,2674 Z M238.8,2686.8 C237.92,2686.8 237.2,2687.52 237.2,2688.4 C237.2,2689.28 237.92,2690 238.8,2690 C239.68,2690 240.4,2689.28 240.4,2688.4 C240.4,2687.52 239.68,2686.8 238.8,2686.8 L238.8,2686.8 Z" id="tabbar_icon_gouwu_pre"></path>
        </g>
    </g>
</svg>