<?xml version="1.0" encoding="UTF-8"?>
<svg width="18px" height="16px" viewBox="0 0 18 16" version="1.1" xmlns="http://www.w3.org/2000/svg" xmlns:xlink="http://www.w3.org/1999/xlink">
    <!-- Generator: Sketch 40 (33762) - http://www.bohemiancoding.com/sketch -->
    <title>tabbar_icon_gouwu</title>
    <desc>Created with Sketch.</desc>
    <defs></defs>
    <g id="Page-1" stroke="none" stroke-width="1" fill="none" fill-rule="evenodd">
        <g id="壹号商城" transform="translate(-196.000000, -2735.000000)" fill="#909090">
            <path d="M201.8,2747.8 C200.92,2747.8 200.2,2748.52 200.2,2749.4 C200.2,2750.28 200.92,2751 201.8,2751 C202.68,2751 203.4,2750.28 203.4,2749.4 C203.4,2748.52 202.68,2747.8 201.8,2747.8 L201.8,2747.8 Z M196,2735 L196,2736.6 L197.8,2736.6 L201.04,2742.68 L199.78,2744.6 C199.69,2744.84 199.6,2745.16 199.6,2745.4 C199.6,2746.28 200.41,2747 201.4,2747 L212.2,2747 L212.2,2745.4 L201.76,2745.4 C201.67,2745.4 201.58,2745.32 201.58,2745.24 L201.58,2745.16 L202.39,2743.8 L209.05,2743.8 C209.77,2743.8 210.31,2743.48 210.58,2743 L213.82,2737.8 C214,2737.64 214,2737.56 214,2737.4 C214,2736.92 213.64,2736.6 213.1,2736.6 L199.78,2736.6 L198.97,2735 L196,2735 L196,2735 Z M209.8,2747.8 C208.92,2747.8 208.2,2748.52 208.2,2749.4 C208.2,2750.28 208.92,2751 209.8,2751 C210.68,2751 211.4,2750.28 211.4,2749.4 C211.4,2748.52 210.68,2747.8 209.8,2747.8 L209.8,2747.8 Z" id="tabbar_icon_gouwu"></path>
        </g>
    </g>
</svg>